<?xml version="1.0" encoding="UTF-8" standalone="no"?>
<svg xmlns="http://www.w3.org/2000/svg" width="40" height="40" viewBox="0 0 40 40">
  <g transform="translate(20, 20)">
    <!-- Barrel body -->
    <path d="M -8,-10 C -10,-8 -10,8 -8,10 L 8,10 C 10,8 10,-8 8,-10 Z" fill="#b08967" stroke="#604a32" stroke-width="1"/>
    
    <!-- Barrel top -->
    <ellipse cx="0" cy="-10" rx="8" ry="3" fill="#a07957" stroke="#604a32" stroke-width="1"/>
    
    <!-- Barrel bottom -->
    <ellipse cx="0" cy="10" rx="8" ry="3" fill="#a07957" stroke="#604a32" stroke-width="1"/>
    
    <!-- Barrel bands -->
    <path d="M -8,-7 C -10,-5 -10,5 -8,7 L 8,7 C 10,5 10,-5 8,-7 Z" fill="none" stroke="#604a32" stroke-width="1"/>
    <path d="M -8,-3 C -9,-2 -9,2 -8,3 L 8,3 C 9,2 9,-2 8,-3 Z" fill="none" stroke="#604a32" stroke-width="1"/>
    
    <!-- Red dot -->
    <circle cx="0" cy="0" r="2" fill="#ff4040"/>
  </g>
</svg>